#!OML:ASF X:\für Bonn\!DataBase\2005_08_10_Bjorn_Final\c3d\bjorn.ASF
:FULLY-SPECIFIED
:DEGREES
121
root 2.82801 10.1972 -0.26432 311.312 -260.026 -404.369
lowerback 45.1326 -5.83931 4.66226
upperback 22.7668 -0.20261 5.34387
thorax 4.74241 1.71357 3.6329
lowerneck -4.63627 -10.5018 0.181771
upperneck 3.97158 -14.2449 4.53605
head 2.38994 -6.98015 0.880231
rclavicle 3.18055e-015 -1.27222e-014
rhumerus 11.4744 -14.6036 -72.4872
rradius 22.2975
rwrist 10.9542
rhand -38.8006 26.7231
rfingers 7.12502
rthumb -11.8113 -2.9238
lclavicle 3.18055e-015 -1.27222e-014
lhumerus 38.2555 -27.7948 43.7188
lradius 54.8647
lwrist -9.82743
lhand -26.7247 -13.2898
lfingers 7.12502
lthumb -0.154164 16.6899
rfemur -72.3785 -47.4114 -6.08149
rtibia 138.417
rfoot -31.8299 48.4227
rtoes -19.4973
lfemur -79.6218 25.2594 -29.3701
ltibia 136.664
lfoot -27.2571 -16.3378
ltoes -23.3731
122
root 2.84645 10.0805 -0.27741 310.418 -260.023 -404.954
lowerback 45.3774 -5.90534 4.58298
upperback 22.8248 -0.256852 5.34837
thorax 4.7543 1.68989 3.7012
lowerneck -4.54413 -10.4985 0.236591
upperneck 3.97258 -14.2371 4.47148
head 2.36348 -6.97789 0.858108
rclavicle 6.04305e-014 8.82604e-014
rhumerus 11.0282 -14.3452 -72.4404
rradius 22.9254
rwrist 10.6469
rhand -39.6325 27.5978
rfingers 7.12502
rthumb -12.6135 -2.00139
lclavicle 6.04305e-014 8.82604e-014
lhumerus 38.3149 -27.7646 43.686
lradius 54.3225
lwrist -9.85526
lhand -26.3516 -13.4593
lfingers 7.12502
lthumb 0.206197 16.5204
rfemur -72.1845 -49.6722 -7.40925
rtibia 139.298
rfoot -32.5606 49.7861
rtoes -19.9093
lfemur -79.9292 26.0893 -29.4329
ltibia 137.595
lfoot -27.4532 -16.5359
ltoes -23.8387
123
root 2.86462 9.96372 -0.289749 309.726 -260.035 -405.336
lowerback 45.6291 -5.98742 4.52869
upperback 22.8662 -0.321356 5.3613
thorax 4.74698 1.66156 3.76889
lowerneck -4.51 -10.5025 0.250721
upperneck 4.05347 -14.2388 4.38351
head 2.37555 -6.97826 0.828756
rclavicle 1.27222e-014 3.26007e-014
rhumerus 10.5689 -14.1197 -72.4155
rradius 23.5735
rwrist 10.5021
rhand -40.4456 28.5409
rfingers 7.12502
rthumb -13.3973 -1.00835
lclavicle 1.27222e-014 3.26007e-014
lhumerus 38.3295 -27.7367 43.7149
lradius 53.7552
lwrist -9.84506
lhand -25.8757 -13.689
lfingers 7.12502
lthumb 0.665777 16.2897
rfemur -71.8426 -52.0531 -8.87217
rtibia 140.161
rfoot -33.4406 51.2092
rtoes -20.3654
lfemur -80.2524 27.0127 -29.4623
ltibia 138.53
lfoot -27.6902 -16.7508
ltoes -24.3471
124
root 2.88256 9.8506 -0.301547 308.975 -260.028 -405.771
lowerback 45.892 -6.06063 4.47214
upperback 22.8718 -0.382457 5.36172
thorax 4.69582 1.63315 3.82101
lowerneck -4.3852 -10.5079 0.245004
upperneck 4.11451 -14.2404 4.34964
head 2.37115 -6.97896 0.824737
rclavicle 7.63333e-014 5.1684e-014
rhumerus 10.0373 -13.8131 -72.3514
rradius 24.2195
rwrist 10.3408
rhand -41.24 29.4415
rfingers 7.12502
rthumb -14.1629 -0.0557006
lclavicle 7.63333e-014 5.1684e-014
lhumerus 38.2769 -27.7484 43.8324
lradius 53.1606
lwrist -9.97788
lhand -25.3817 -13.8789
lfingers 7.12502
lthumb 1.14291 16.0978
rfemur -71.3579 -54.4681 -10.5036
rtibia 140.997
rfoot -34.4579 52.5901
rtoes -20.8181
lfemur -80.55 27.9622 -29.4965
ltibia 139.428
lfoot -27.9168 -16.986
ltoes -24.7298
125
root 2.90042 9.73909 -0.312986 308.357 -260.054 -406.075
lowerback 47.0821 -6.23945 4.59747
upperback 22.0799 -0.395651 5.26166
thorax 4.51972 1.61648 3.75702
lowerneck -4.37862 -10.5172 0.282737
upperneck 4.2499 -14.2545 4.30029
head 2.40815 -6.98206 0.799714
rclavicle -7.31528e-014 -6.04305e-014
rhumerus 9.5444 -13.6946 -72.3895
rradius 24.8761
rwrist 10.3547
rhand -42.0111 30.4281
rfingers 7.12502
rthumb -14.9059 0.984412
lclavicle -7.31528e-014 -6.04305e-014
lhumerus 38.2517 -27.7416 43.9531
lradius 52.5511
lwrist -10.1108
lhand -24.8544 -14.0939
lfingers 7.12502
lthumb 1.65222 15.8794
rfemur -70.689 -56.873 -12.3034
rtibia 141.809
rfoot -35.4098 54.0568
rtoes -20.8444
lfemur -80.8374 29.0499 -29.4841
ltibia 140.311
lfoot -28.1703 -17.2614
ltoes -25.1353
126
root 2.91793 9.62937 -0.323042 307.727 -260.053 -406.403
lowerback 47.3061 -6.30774 4.53435
upperback 22.0839 -0.459368 5.26475
thorax 4.49377 1.58545 3.81522
lowerneck -4.3738 -10.5277 0.26697
upperneck 4.43332 -14.2669 4.23739
head 2.46471 -6.98384 0.777044
rclavicle 9.85972e-014 1.18476e-013
rhumerus 9.07553 -13.4993 -72.3925
rradius 25.4812
rwrist 10.3734
rhand -42.7387 31.4317
rfingers 7.12502
rthumb -15.6067 2.04135
lclavicle 9.85972e-014 1.18476e-013
lhumerus 38.1545 -27.7142 44.1637
lradius 51.8862
lwrist -10.3911
lhand -24.4439 -14.2978
lfingers 7.12502
lthumb 2.04867 15.6721
rfemur -69.8581 -59.2961 -14.3048
rtibia 142.603
rfoot -36.5609 55.4442
rtoes -21.0534
lfemur -81.151 30.1752 -29.4958
ltibia 141.183
lfoot -28.4645 -17.5148
ltoes -25.6857
127
root 2.93506 9.52256 -0.334008 307.111 -260.075 -406.688
lowerback 47.5362 -6.38499 4.50119
upperback 22.0956 -0.518805 5.26244
thorax 4.47714 1.5613 3.85319
lowerneck -4.39993 -10.5437 0.215872
upperneck 4.65732 -14.2874 4.19862
head 2.54582 -6.98799 0.763502
rclavicle 2.8625e-014 1.31993e-013
rhumerus 8.61078 -13.3333 -72.3991
rradius 26.0761
rwrist 10.4585
rhand -43.4753 32.4749
rfingers 7.12502
rthumb -16.3161 3.14132
lclavicle 2.8625e-014 1.31993e-013
lhumerus 38.0261 -27.7131 44.3956
lradius 51.241
lwrist -10.6621
lhand -24.1407 -14.5052
lfingers 7.12502
lthumb 2.34143 15.4617
rfemur -68.6907 -61.6516 -16.6478
rtibia 143.365
rfoot -37.7681 56.8864
rtoes -21.1799
lfemur -81.3985 31.416 -29.4613
ltibia 142.024
lfoot -28.7338 -17.8561
ltoes -25.8852
128
root 2.95142 9.42039 -0.343494 306.508 -260.097 -406.976
lowerback 47.7758 -6.45778 4.4729
upperback 22.075 -0.577344 5.24715
thorax 4.42312 1.53635 3.8731
lowerneck -4.37185 -10.5534 0.181832
upperneck 4.85563 -14.2985 4.16815
head 2.60787 -6.98828 0.754323
rclavicle 6.36111e-015 -2.14687e-014
rhumerus 8.13784 -13.1691 -72.4325
rradius 26.6251
rwrist 10.5976
rhand -44.2225 33.4592
rfingers 7.12502
rthumb -17.0354 4.18614
lclavicle 6.36111e-015 -2.14687e-014
lhumerus 37.8657 -27.7458 44.6455
lradius 50.5428
lwrist -11.0645
lhand -24.0414 -14.668
lfingers 7.12502
lthumb 2.43742 15.2978
rfemur -67.2882 -63.9217 -19.1933
rtibia 144.092
rfoot -38.9546 58.2424
rtoes -21.025
lfemur -81.6555 32.745 -29.4184
ltibia 142.828
lfoot -29.0422 -18.2088
ltoes -26.3298
129
root 2.9675 9.31956 -0.352958 305.992 -260.105 -407.17
lowerback 47.989 -6.54156 4.44234
upperback 22.0765 -0.648593 5.23026
thorax 4.39925 1.50711 3.8973
lowerneck -4.40996 -10.5642 0.169364
upperneck 5.12185 -14.313 4.09733
head 2.69978 -6.98822 0.723367
rclavicle 1.90833e-014 -6.04305e-014
rhumerus 7.7233 -13.018 -72.4853
rradius 27.1091
rwrist 10.8505
rhand -44.9707 34.5903
rfingers 7.12502
rthumb -17.7554 5.38093
lclavicle 1.90833e-014 -6.04305e-014
lhumerus 37.7039 -27.7818 44.8693
lradius 49.8559
lwrist -11.441
lhand -24.0941 -14.8176
lfingers 7.12502
lthumb 2.38652 15.1488
rfemur -65.4573 -66.1334 -22.1884
rtibia 144.789
rfoot -40.204 59.6522
rtoes -20.7914
lfemur -81.8684 34.1117 -29.3668
ltibia 143.611
lfoot -29.3994 -18.5179
ltoes -26.8138
130
root 2.98309 9.22162 -0.362686 305.462 -260.139 -407.395
lowerback 48.1763 -6.60519 4.42183
upperback 22.0877 -0.69461 5.23338
thorax 4.38929 1.48923 3.93025
lowerneck -4.44593 -10.5867 0.126176
upperneck 5.35005 -14.3421 4.05617
head 2.78424 -6.99644 0.706666
rclavicle 0 4.05521e-014
rhumerus 7.35751 -12.8887 -72.5116
rradius 27.5347
rwrist 11.111
rhand -45.7563 35.7638
rfingers 7.12502
rthumb -18.5113 6.62456
lclavicle 0 4.05521e-014
lhumerus 37.5351 -27.8196 45.1739
lradius 49.1482
lwrist -11.8812
lhand -24.179 -14.9314
lfingers 7.12502
lthumb 2.30446 15.0359
rfemur -63.3509 -68.2124 -25.46
rtibia 145.476
rfoot -41.7192 60.8513
rtoes -20.8562
lfemur -82.0897 35.6687 -29.2818
ltibia 144.377
lfoot -29.6987 -19.004
ltoes -26.9041
131
root 2.99855 9.12562 -0.371332 305.023 -260.16 -407.52
lowerback 48.3677 -6.68336 4.39441
upperback 22.094 -0.760325 5.2275
thorax 4.37459 1.46176 3.96302
lowerneck -4.46968 -10.5966 0.13406
upperneck 5.57508 -14.354 3.96699
head 2.85677 -6.99677 0.669169
rclavicle -2.8625e-014 -4.13472e-014
rhumerus 7.01748 -12.7252 -72.5505
rradius 27.8914
rwrist 11.3977
rhand -46.4807 36.9566
rfingers 7.12502
rthumb -19.2079 7.8851
lclavicle -2.8625e-014 -4.13472e-014
lhumerus 37.3364 -27.8889 45.424
lradius 48.4604
lwrist -12.245
lhand -24.3571 -14.9943
lfingers 7.12502
lthumb 2.13252 14.9748
rfemur -60.5343 -70.2422 -29.4402
rtibia 146.135
rfoot -43.3128 62.0971
rtoes -20.7323
lfemur -82.2893 37.2983 -29.164
ltibia 145.124
lfoot -30.053 -19.4969
ltoes -27.2092
132
root 3.01407 9.03252 -0.379661 304.501 -260.193 -407.755
lowerback 48.5087 -6.73483 4.3432
upperback 22.1217 -0.810574 5.23865
thorax 4.38983 1.43781 4.0199
lowerneck -4.50224 -10.6079 0.112908
upperneck 5.79153 -14.3656 3.87967
head 2.93079 -6.99778 0.636267
rclavicle 7.31528e-014 5.1684e-014
rhumerus 6.742 -12.6756 -72.6146
rradius 28.2297
rwrist 11.7988
rhand -47.1409 37.9354
rfingers 7.12502
rthumb -19.8427 8.92834
lclavicle 7.31528e-014 5.1684e-014
lhumerus 37.1325 -27.9313 45.7603
lradius 47.7231
lwrist -12.669
lhand -24.622 -15.0958
lfingers 7.12502
lthumb 1.8766 14.8757
rfemur -57.2807 -72.1033 -33.8626
rtibia 146.779
rfoot -45.1599 63.1553
rtoes -20.8093
lfemur -82.5105 39.0284 -29.0651
ltibia 145.852
lfoot -30.4516 -19.9335
ltoes -27.637
133
root 3.02915 8.94218 -0.388067 304.019 -260.238 -407.939
lowerback 48.6764 -6.79371 4.31316
upperback 22.1352 -0.858098 5.25158
thorax 4.38621 1.41661 4.0681
lowerneck -4.49997 -10.6146 0.0527377
upperneck 5.96697 -14.3695 3.83694
head 2.99169 -6.99617 0.626591
rclavicle 3.18055e-015 -2.54444e-014
rhumerus 6.42897 -12.5589 -72.644
rradius 28.6071
rwrist 12.0305
rhand -47.6521 38.9291
rfingers 7.12502
rthumb -20.3341 9.97363
lclavicle 3.18055e-015 -2.54444e-014
lhumerus 36.9293 -28.0436 46.0465
lradius 47.0138
lwrist -12.9647
lhand -24.9374 -15.1276
lfingers 7.12502
lthumb 1.572 14.8463
rfemur -53.5194 -73.708 -38.7633
rtibia 147.398
rfoot -46.9688 64.1303
rtoes -20.9056
lfemur -82.676 40.8785 -28.8969
ltibia 146.549
lfoot -30.8389 -20.4902
ltoes -27.7853
134
root 3.04411 8.85319 -0.395514 303.471 -260.254 -408.181
lowerback 48.82 -6.84045 4.24527
upperback 22.1704 -0.90715 5.26424
thorax 4.40999 1.39266 4.13442
lowerneck -4.53404 -10.6189 0.0283279
upperneck 6.12977 -14.3708 3.75701
head 3.0487 -6.99388 0.598432
rclavicle 0 1.145e-013
rhumerus 6.16235 -12.4672 -72.6727
rradius 28.9445
rwrist 12.2912
rhand -48.1563 40.0032
rfingers 7.12502
rthumb -20.8186 11.1001
lclavicle 0 1.145e-013
lhumerus 36.6912 -28.0913 46.4252
lradius 46.3013
lwrist -13.326
lhand -25.1322 -15.2262
lfingers 7.12502
lthumb 1.38389 14.749
rfemur -48.3865 -75.2866 -45.0743
rtibia 148.001
rfoot -49.1451 65.0426
rtoes -20.894
lfemur -82.8116 42.7976 -28.7424
ltibia 147.228
lfoot -31.271 -21.003
ltoes -28.1167
135
root 3.05896 8.76689 -0.402592 302.854 -260.275 -408.515
lowerback 48.94 -6.86584 4.15574
upperback 22.2083 -0.945373 5.28751
thorax 4.4391 1.36972 4.218
lowerneck -4.53646 -10.6114 -0.0544777
upperneck 6.26281 -14.3564 3.75262
head 3.10114 -6.98395 0.605836
rclavicle -2.54444e-014 8.74653e-015
rhumerus 5.90249 -12.3812 -72.7039
rradius 29.2871
rwrist 12.5507
rhand -48.6133 40.9835
rfingers 7.12502
rthumb -21.2576 12.1292
lclavicle -2.54444e-014 8.74653e-015
lhumerus 36.4301 -28.1257 46.842
lradius 45.6002
lwrist -13.7439
lhand -25.2728 -15.2194
lfingers 7.12502
lthumb 1.24805 14.7567
rfemur -42.7066 -76.5933 -51.9545
rtibia 148.596
rfoot -51.4667 65.7803
rtoes -21.1713
lfemur -82.9654 44.8507 -28.5759
ltibia 147.887
lfoot -31.7234 -21.5859
ltoes -28.322
